<svg width="195" height="108" xmlns="http://www.w3.org/2000/svg" xmlns:xlink="http://www.w3.org/1999/xlink" xml:space="preserve" overflow="hidden"><g transform="translate(-445 -360)"><g><g><g><g><path d="M149.64 64.6837C148.844 63.9152 147.576 63.9372 146.808 64.733 146.058 65.5092 146.058 66.7398 146.808 67.516L173.4 94.1082C173.408 94.116 173.408 94.1288 173.4 94.1365 173.396 94.1401 173.391 94.1423 173.386 94.1423L14.0212 94.1423C12.915 94.1423 12.0182 95.039 12.0182 96.1453 12.0182 97.2516 12.915 98.1483 14.0212 98.1483L173.386 98.1483C173.397 98.1485 173.406 98.1575 173.406 98.1685 173.406 98.1737 173.404 98.1788 173.4 98.1824L146.808 124.775C146.012 125.543 145.99 126.811 146.759 127.607 147.527 128.403 148.795 128.425 149.591 127.656 149.608 127.64 149.624 127.623 149.64 127.607L179.686 97.5614C180.467 96.7792 180.467 95.5113 179.686 94.7291Z" fill="#000000" fill-rule="nonzero" fill-opacity="1" transform="matrix(1.00889 0 0 1 446 319.275)"/></g></g></g></g></g></svg>