<svg width="335" height="335" xmlns="http://www.w3.org/2000/svg" xmlns:xlink="http://www.w3.org/1999/xlink" xml:space="preserve" overflow="hidden"><g transform="translate(-2250 -1287)"><g><g><g><g><path d="M2406.69 1519.31 2427.31 1519.31 2427.31 1546.81 2406.69 1546.81Z" fill="#FFFFFFB3" fill-rule="nonzero" fill-opacity="1"/><path d="M2406.69 1560.56 2427.31 1560.56 2427.31 1581.19 2406.69 1581.19Z" fill="#FFFFFFB3" fill-rule="nonzero" fill-opacity="1"/><path d="M2441.06 1560.56 2540.75 1560.56 2540.75 1581.19 2441.06 1581.19Z" fill="#FFFFFFB3" fill-rule="nonzero" fill-opacity="1"/><path d="M2293.25 1560.56 2392.94 1560.56 2392.94 1581.19 2293.25 1581.19Z" fill="#FFFFFFB3" fill-rule="nonzero" fill-opacity="1"/><path d="M2514.69 1464.31 2319.31 1464.31C2312.51 1464.31 2307 1469.82 2307 1476.62L2307 1507.01C2307 1513.8 2312.51 1519.31 2319.31 1519.31L2514.69 1519.31C2521.49 1519.31 2527 1513.8 2527 1507.01L2527 1476.62C2527 1469.82 2521.49 1464.31 2514.69 1464.31ZM2341.38 1498.69C2337.58 1498.69 2334.5 1495.61 2334.5 1491.81 2334.5 1488.02 2337.58 1484.94 2341.38 1484.94 2345.17 1484.94 2348.25 1488.02 2348.25 1491.81 2348.25 1495.61 2345.17 1498.69 2341.38 1498.69ZM2375.75 1498.69C2371.95 1498.69 2368.88 1495.61 2368.88 1491.81 2368.88 1488.02 2371.95 1484.94 2375.75 1484.94 2379.55 1484.94 2382.62 1488.02 2382.62 1491.81 2382.62 1495.61 2379.55 1498.69 2375.75 1498.69ZM2410.12 1498.69C2406.33 1498.69 2403.25 1495.61 2403.25 1491.81 2403.25 1488.02 2406.33 1484.94 2410.12 1484.94 2413.92 1484.94 2417 1488.02 2417 1491.81 2417 1495.61 2413.92 1498.69 2410.12 1498.69Z" fill="#FFFFFFB3" fill-rule="nonzero" fill-opacity="1"/><path d="M2514.69 1395.56 2319.31 1395.56C2312.51 1395.56 2307 1401.07 2307 1407.87L2307 1438.26C2307 1445.05 2312.51 1450.56 2319.31 1450.56L2514.69 1450.56C2521.49 1450.56 2527 1445.05 2527 1438.26L2527 1407.87C2527 1401.07 2521.49 1395.56 2514.69 1395.56ZM2341.38 1429.94C2337.58 1429.94 2334.5 1426.86 2334.5 1423.06 2334.5 1419.27 2337.58 1416.19 2341.38 1416.19 2345.17 1416.19 2348.25 1419.27 2348.25 1423.06 2348.25 1426.86 2345.17 1429.94 2341.38 1429.94ZM2375.75 1429.94C2371.95 1429.94 2368.88 1426.86 2368.88 1423.06 2368.88 1419.27 2371.95 1416.19 2375.75 1416.19 2379.55 1416.19 2382.62 1419.27 2382.62 1423.06 2382.62 1426.86 2379.55 1429.94 2375.75 1429.94ZM2410.12 1429.94C2406.33 1429.94 2403.25 1426.86 2403.25 1423.06 2403.25 1419.27 2406.33 1416.19 2410.12 1416.19 2413.92 1416.19 2417 1419.27 2417 1423.06 2417 1426.86 2413.92 1429.94 2410.12 1429.94Z" fill="#FFFFFFB3" fill-rule="nonzero" fill-opacity="1"/><path d="M2514.69 1326.81 2319.31 1326.81C2312.51 1326.81 2307 1332.32 2307 1339.12L2307 1369.51C2307 1376.3 2312.51 1381.81 2319.31 1381.81L2514.69 1381.81C2521.49 1381.81 2527 1376.3 2527 1369.51L2527 1339.12C2527 1332.32 2521.49 1326.81 2514.69 1326.81ZM2341.38 1361.19C2337.58 1361.19 2334.5 1358.11 2334.5 1354.31 2334.5 1350.52 2337.58 1347.44 2341.38 1347.44 2345.17 1347.44 2348.25 1350.52 2348.25 1354.31 2348.25 1358.11 2345.17 1361.19 2341.38 1361.19ZM2375.75 1361.19C2371.95 1361.19 2368.88 1358.11 2368.88 1354.31 2368.88 1350.52 2371.95 1347.44 2375.75 1347.44 2379.55 1347.44 2382.62 1350.52 2382.62 1354.31 2382.62 1358.11 2379.55 1361.19 2375.75 1361.19ZM2410.12 1361.19C2406.33 1361.19 2403.25 1358.11 2403.25 1354.31 2403.25 1350.52 2406.33 1347.44 2410.12 1347.44 2413.92 1347.44 2417 1350.52 2417 1354.31 2417 1358.11 2413.92 1361.19 2410.12 1361.19Z" fill="#FFFFFFB3" fill-rule="nonzero" fill-opacity="1"/></g></g></g></g></g></svg>