<svg width="335" height="335" xmlns="http://www.w3.org/2000/svg" xmlns:xlink="http://www.w3.org/1999/xlink" xml:space="preserve" overflow="hidden"><g transform="translate(-2030 -1072)"><g><g><g><g><path d="M2102.77 1237.4C2104.96 1237.03 2107.17 1236.85 2109.39 1236.85 2116.87 1236.88 2124.22 1238.81 2130.74 1242.48 2131.14 1239.35 2132.08 1236.31 2133.5 1233.49 2132.1 1230.16 2130.68 1226.8 2129.25 1223.43 2123.25 1209.27 2116.87 1194.2 2112.2 1180.91 2108.05 1166.79 2105.51 1154.88 2107.05 1149.56 2108.45 1145.48 2107.55 1140.96 2104.69 1137.72 2099.86 1131.92 2091.24 1131.14 2085.44 1135.97 2083.3 1137.76 2081.76 1140.16 2081.02 1142.85 2076.35 1160.46 2085.48 1188.09 2100.78 1231.71 2101.44 1233.6 2102.1 1235.49 2102.77 1237.4Z" fill="#FFFFFFB3" fill-rule="nonzero" fill-opacity="1"/><path d="M2207.26 1247.47C2211.05 1248.9 2214.65 1250.45 2218.07 1252.14 2217.43 1248.43 2216.78 1244.72 2216.14 1241.01 2213.94 1228.41 2211.73 1215.67 2209.88 1203.71 2207.17 1180.41 2205.54 1159.73 2207.75 1151.18 2209.54 1144.3 2205.77 1137.18 2199.07 1134.8 2192.03 1132.44 2184.42 1136.24 2182.06 1143.28 2181.98 1143.54 2181.9 1143.8 2181.83 1144.07 2177.75 1159.26 2180.77 1188.81 2185.31 1224.12 2195.12 1229.11 2202.88 1237.37 2207.26 1247.47Z" fill="#FFFFFFB3" fill-rule="nonzero" fill-opacity="1"/><path d="M2132.61 1187.19C2134.18 1194.3 2137.83 1207.17 2142.45 1223.46 2148.21 1219.97 2154.85 1218.23 2161.58 1218.44 2164.1 1218.44 2166.62 1218.61 2169.12 1218.97 2168.89 1218.15 2168.64 1217.28 2168.41 1216.48 2164.04 1201.08 2160.27 1187.78 2158.86 1181.39 2157.27 1174.14 2150.1 1169.55 2142.85 1171.14 2135.6 1172.72 2131.01 1179.89 2132.6 1187.14 2132.6 1187.16 2132.6 1187.17 2132.61 1187.19Z" fill="#FFFFFFB3" fill-rule="nonzero" fill-opacity="1"/><path d="M2072.48 1263.23C2072.76 1263.35 2073.04 1263.44 2073.31 1263.57L2077.73 1265.65C2077.63 1257.44 2081.18 1249.62 2087.41 1244.28 2089.04 1242.86 2090.84 1241.66 2092.77 1240.69 2084.13 1219.18 2074.86 1201.01 2067.94 1192.81 2063.15 1187.13 2054.66 1186.42 2048.98 1191.21 2048.47 1191.64 2047.99 1192.11 2047.55 1192.61 2043.22 1197.69 2043.19 1205.17 2047.5 1210.28 2054.5 1218.67 2064.11 1239.92 2072.48 1263.23Z" fill="#FFFFFFB3" fill-rule="nonzero" fill-opacity="1"/><path d="M2351.02 1219.38C2345.92 1213.99 2337.41 1213.75 2332.02 1218.86 2332.02 1218.86 2332.02 1218.86 2332.02 1218.86 2319.83 1231.11 2309.57 1245.13 2301.59 1260.46 2309.46 1228.5 2314.46 1197.84 2313.77 1180.18 2313.78 1177.42 2313.56 1174.66 2313.12 1171.93 2311.86 1164.63 2304.92 1159.74 2297.62 1161.01 2291 1162.16 2286.26 1168.02 2286.51 1174.73 2286.43 1175.81 2286.47 1176.89 2286.65 1177.95 2286.81 1178.86 2286.93 1179.88 2287.01 1180.98 2286.15 1217.86 2276.4 1229.37 2263.44 1262.95 2263.02 1264.05 2261.78 1264.59 2260.68 1264.17 2259.94 1263.88 2259.42 1263.2 2259.33 1262.41 2258.96 1258.88 2258.61 1255.58 2258.58 1255.19 2255.1 1209.25 2251.84 1178.38 2267.1 1148.23 2270.33 1141.8 2268.32 1133.98 2262.39 1129.92 2256.02 1126.1 2247.77 1128.16 2243.95 1134.53 2243.81 1134.76 2243.67 1135 2243.55 1135.25 2234.45 1152.75 2230.83 1176.62 2229.91 1202.42 2229.36 1220.96 2229.02 1239.95 2229.06 1258.37 2238.68 1264.31 2246.56 1272.69 2251.88 1282.66 2256.03 1291.06 2256.07 1300.91 2251.98 1309.34 2242.96 1328.25 2221.74 1342.41 2193.39 1348.59 2184.34 1360.72 2170.19 1368.62 2156.93 1368.62 2154.25 1368.63 2151.58 1368.3 2148.98 1367.63 2139.54 1365.16 2133.41 1357.57 2131.71 1346.7 2131.38 1346.61 2131.05 1346.51 2130.72 1346.42 2123.75 1350.82 2115.7 1353.21 2107.46 1353.32 2100.85 1353.44 2094.36 1351.52 2088.89 1347.81 2088.85 1348.24 2088.76 1348.66 2088.76 1349.09 2088.76 1373.17 2139.91 1392.69 2203 1392.69 2251 1392.69 2292.08 1381.39 2309 1365.39 2314.97 1359.69 2317.68 1351.37 2316.24 1343.25L2315.26 1337.62C2302.65 1284.83 2350.04 1238.82 2350.5 1238.38 2355.89 1233.28 2356.12 1224.77 2351.02 1219.38 2351.02 1219.38 2351.02 1219.38 2351.02 1219.38Z" fill="#FFFFFFB3" fill-rule="nonzero" fill-opacity="1"/><path d="M2093.33 1338.2C2097.28 1341.5 2102.31 1343.22 2107.46 1343.01 2115.32 1342.83 2122.91 1340.03 2129.01 1335.06 2133.12 1336.47 2137.32 1337.63 2141.57 1338.51 2141.1 1348.92 2144.7 1355.85 2151.6 1357.65 2153.34 1358.1 2155.13 1358.32 2156.93 1358.31 2168.05 1358.31 2180.36 1350.55 2187.23 1339.31 2214.46 1334.27 2234.63 1321.77 2242.68 1304.91 2245.39 1299.33 2245.38 1292.81 2242.64 1287.24 2236.05 1273.94 2220.67 1262.73 2199.24 1255.57 2194.02 1239.29 2178.72 1228.38 2161.62 1228.75 2153.74 1228.78 2147.97 1230.98 2144.47 1235.29 2141.01 1240.17 2139.8 1246.31 2141.16 1252.14 2137.48 1252.84 2133.93 1253.69 2130.56 1254.66 2124.54 1249.88 2117.09 1247.24 2109.39 1247.16 2103.92 1246.97 2098.56 1248.69 2094.22 1252.02 2087.06 1258.06 2085.88 1268.64 2091.53 1276.11 2091.2 1276.36 2090.89 1276.59 2090.59 1276.81 2090.03 1277.23 2089.52 1277.61 2089.01 1278.01 2087.75 1279.01 2086.19 1279.55 2084.58 1279.56 2083.56 1279.56 2082.56 1279.34 2081.64 1278.9L2068.91 1272.9C2060.2 1268.76 2049.78 1272.48 2045.65 1281.19 2045.1 1282.34 2044.68 1283.55 2044.4 1284.79 2043.74 1287.83 2043.41 1290.93 2043.42 1294.04L2043.42 1295.2C2043.41 1298.31 2043.74 1301.41 2044.4 1304.45 2046.15 1312.43 2053.26 1318.09 2061.43 1318.03L2061.44 1318.03C2064.02 1318.03 2066.58 1317.45 2068.91 1316.34L2081.66 1310.33C2084 1309.22 2086.78 1309.51 2088.84 1311.08 2089.22 1311.37 2089.61 1311.65 2090.01 1311.95 2090.51 1312.31 2091.05 1312.7 2091.66 1313.18 2084.92 1326.3 2088.77 1334.01 2093.33 1338.2ZM2213.13 1280.57C2216.36 1280.57 2218.98 1283.19 2218.98 1286.43 2218.98 1289.66 2216.36 1292.28 2213.13 1292.28 2209.9 1292.28 2207.28 1289.66 2207.28 1286.43 2207.28 1283.19 2209.9 1280.57 2213.13 1280.57ZM2202.91 1267.92C2192.37 1285.24 2193.01 1307.13 2204.52 1323.8 2200.09 1325.52 2195.55 1326.91 2190.92 1327.98 2178.63 1307.51 2178.59 1281.93 2190.82 1261.41 2192.07 1263.25 2193.88 1264.63 2195.98 1265.35 2198.37 1266.15 2200.68 1267.01 2202.91 1267.92ZM2130.56 1264.98C2131.54 1264.98 2132.5 1264.84 2133.44 1264.57 2136.5 1263.68 2139.74 1262.91 2143.09 1262.27 2144.66 1261.96 2146.14 1261.28 2147.4 1260.29 2144.59 1271.53 2143.01 1283.04 2142.68 1294.62 2142.51 1306.18 2143.53 1317.74 2145.73 1329.09 2145.06 1328.79 2144.37 1328.56 2143.66 1328.41 2139.81 1327.61 2136.02 1326.57 2132.3 1325.29 2129.66 1324.39 2126.76 1324.62 2124.28 1325.91 2122.66 1315.56 2121.92 1305.09 2122.06 1294.62 2122.18 1284.22 2123.38 1273.87 2125.65 1263.72 2127.16 1264.54 2128.85 1264.97 2130.56 1264.98ZM2084.64 1299.35C2082.17 1299.36 2079.74 1299.89 2077.5 1300.91 2077.24 1298.43 2077.11 1295.94 2077.1 1293.45 2077.1 1291.7 2077.23 1289.99 2077.36 1288.28 2079.62 1289.33 2082.09 1289.87 2084.58 1289.87 2086.81 1289.85 2089.02 1289.4 2091.08 1288.55 2090.95 1290.16 2090.85 1291.79 2090.85 1293.45 2090.86 1295.9 2091.02 1298.34 2091.34 1300.77 2089.22 1299.85 2086.94 1299.37 2084.64 1299.35Z" fill="#FFFFFFB3" fill-rule="nonzero" fill-opacity="1"/><path d="M2146 1140.54C2145.4 1147.16 2150.27 1153.01 2156.89 1153.61 2163.51 1154.21 2169.36 1149.34 2169.96 1142.72 2170.56 1136.1 2165.69 1130.25 2159.07 1129.65 2152.45 1129.05 2146.6 1133.93 2146 1140.54Z" fill="#FFFFFFB3" fill-rule="nonzero" fill-opacity="1"/><path d="M2121.35 1129.67C2127.97 1130.28 2133.82 1125.4 2134.42 1118.78 2135.03 1112.16 2130.15 1106.31 2123.53 1105.71 2116.91 1105.11 2111.06 1109.99 2110.46 1116.6 2109.86 1123.22 2114.74 1129.07 2121.35 1129.67 2121.35 1129.67 2121.35 1129.67 2121.35 1129.67Z" fill="#FFFFFFB3" fill-rule="nonzero" fill-opacity="1"/><path d="M2147.55 1104.44C2154.17 1105.04 2160.02 1100.17 2160.62 1093.55 2161.23 1086.93 2156.35 1081.08 2149.73 1080.48 2143.11 1079.88 2137.26 1084.75 2136.66 1091.37 2136.06 1097.99 2140.93 1103.84 2147.55 1104.44 2147.55 1104.44 2147.55 1104.44 2147.55 1104.44Z" fill="#FFFFFFB3" fill-rule="nonzero" fill-opacity="1"/></g></g></g></g></g></svg>