<svg width="335" height="335" xmlns="http://www.w3.org/2000/svg" xmlns:xlink="http://www.w3.org/1999/xlink" xml:space="preserve" overflow="hidden"><g transform="translate(-2195 -1232)"><g><g><g><g><path d="M2265.75 1372.5C2265.75 1380.09 2259.59 1386.25 2252 1386.25 2244.41 1386.25 2238.25 1380.09 2238.25 1372.5 2238.25 1364.91 2244.41 1358.75 2252 1358.75 2259.59 1358.75 2265.75 1364.91 2265.75 1372.5Z" fill="#FFFFFFB3" fill-rule="nonzero" fill-opacity="1"/><path d="M2320.75 1372.5C2320.75 1380.09 2314.59 1386.25 2307 1386.25 2299.41 1386.25 2293.25 1380.09 2293.25 1372.5 2293.25 1364.91 2299.41 1358.75 2307 1358.75 2314.59 1358.75 2320.75 1364.91 2320.75 1372.5Z" fill="#FFFFFFB3" fill-rule="nonzero" fill-opacity="1"/><path d="M2375.75 1372.5C2375.75 1380.09 2369.59 1386.25 2362 1386.25 2354.41 1386.25 2348.25 1380.09 2348.25 1372.5 2348.25 1364.91 2354.41 1358.75 2362 1358.75 2369.59 1358.75 2375.75 1364.91 2375.75 1372.5Z" fill="#FFFFFFB3" fill-rule="nonzero" fill-opacity="1"/><path d="M2238.25 1303.75 2320.75 1303.75 2320.75 1331.25 2238.25 1331.25Z" fill="#FFFFFFB3" fill-rule="nonzero" fill-opacity="1"/><path d="M2348.25 1303.75 2430.75 1303.75 2430.75 1331.25 2348.25 1331.25Z" fill="#FFFFFFB3" fill-rule="nonzero" fill-opacity="1"/><path d="M2265.75 1427.5C2265.75 1435.09 2259.59 1441.25 2252 1441.25 2244.41 1441.25 2238.25 1435.09 2238.25 1427.5 2238.25 1419.91 2244.41 1413.75 2252 1413.75 2259.59 1413.75 2265.75 1419.91 2265.75 1427.5Z" fill="#FFFFFFB3" fill-rule="nonzero" fill-opacity="1"/><path d="M2320.75 1427.5C2320.75 1435.09 2314.59 1441.25 2307 1441.25 2299.41 1441.25 2293.25 1435.09 2293.25 1427.5 2293.25 1419.91 2299.41 1413.75 2307 1413.75 2314.59 1413.75 2320.75 1419.91 2320.75 1427.5Z" fill="#FFFFFFB3" fill-rule="nonzero" fill-opacity="1"/><path d="M2485.75 1427.5C2485.75 1435.09 2479.59 1441.25 2472 1441.25 2464.41 1441.25 2458.25 1435.09 2458.25 1427.5 2458.25 1419.91 2464.41 1413.75 2472 1413.75 2479.59 1413.75 2485.75 1419.91 2485.75 1427.5Z" fill="#FFFFFFB3" fill-rule="nonzero" fill-opacity="1"/><path d="M2348.25 1413.75 2430.75 1413.75 2430.75 1441.25 2348.25 1441.25Z" fill="#FFFFFFB3" fill-rule="nonzero" fill-opacity="1"/><path d="M2241.69 1468.75 2324.19 1468.75 2324.19 1496.25 2241.69 1496.25Z" fill="#FFFFFFB3" fill-rule="nonzero" fill-opacity="1"/></g></g></g></g></g></svg>