<svg width="335" height="335" xmlns="http://www.w3.org/2000/svg" xmlns:xlink="http://www.w3.org/1999/xlink" xml:space="preserve" overflow="hidden"><g transform="translate(-2140 -1177)"><g><g><g><g><path d="M2167.06 1398.85 2167.06 1452.18 2218.73 1483.5 2218.73 1424.65 2167.06 1393.35 2167.06 1398.85Z" fill="#FFFFFFB3" fill-rule="nonzero" fill-opacity="1"/><path d="M2397.27 1483.5 2448.94 1452.18 2448.94 1393.32 2397.27 1424.62 2397.27 1483.5Z" fill="#FFFFFFB3" fill-rule="nonzero" fill-opacity="1"/><path d="M2267.31 1282.03C2269.16 1281.14 2271.19 1280.68 2273.24 1280.69 2280.83 1280.69 2286.99 1286.84 2286.99 1294.43 2286.99 1299.73 2283.95 1304.56 2279.17 1306.84L2266.18 1313.05 2304.67 1336.38 2304.67 1277.53 2253 1246.23 2253 1288.86Z" fill="#FFFFFFB3" fill-rule="nonzero" fill-opacity="1"/><path d="M2311.33 1277.49 2311.33 1336.38 2349.83 1313.05 2336.84 1306.84C2329.99 1303.56 2327.1 1295.35 2330.38 1288.5 2332.66 1283.73 2337.48 1280.69 2342.76 1280.69 2344.82 1280.68 2346.84 1281.15 2348.69 1282.04L2363 1288.87 2363 1246.2Z" fill="#FFFFFFB3" fill-rule="nonzero" fill-opacity="1"/><path d="M2332.92 1256.63 2339.33 1252.73 2363 1238.4 2308 1205.06 2284.33 1219.4 2277.92 1223.3 2253 1238.4 2308 1271.73 2332.92 1256.63Z" fill="#FFFFFFB3" fill-rule="nonzero" fill-opacity="1"/><path d="M2253.4 1399.85 2277.06 1385.53 2235.81 1360.52 2235.81 1375.99C2235.81 1383.58 2229.66 1389.74 2222.06 1389.74 2214.47 1389.74 2208.31 1383.58 2208.31 1375.99L2208.31 1360.52 2198.4 1366.52 2191.98 1370.41 2167.06 1385.53 2222.06 1418.88 2246.98 1403.75Z" fill="#FFFFFFB3" fill-rule="nonzero" fill-opacity="1"/><path d="M2425.27 1399.85 2448.94 1385.53 2407.69 1360.52 2407.69 1375.99C2407.69 1383.58 2401.53 1389.74 2393.94 1389.74 2386.34 1389.74 2380.19 1383.58 2380.19 1375.99L2380.19 1360.52 2370.27 1366.52 2363.86 1370.41 2338.94 1385.53 2393.94 1418.88 2418.86 1403.75Z" fill="#FFFFFFB3" fill-rule="nonzero" fill-opacity="1"/><path d="M2338.94 1398.85 2338.94 1437.94 2348.93 1431.81C2355.41 1427.83 2363.87 1429.86 2367.85 1436.33 2371.82 1442.81 2369.79 1451.27 2363.32 1455.25L2353.72 1461.16 2390.6 1483.5 2390.6 1424.65 2338.94 1393.35Z" fill="#FFFFFFB3" fill-rule="nonzero" fill-opacity="1"/><path d="M2252.4 1453.7C2246.06 1449.52 2244.3 1440.99 2248.48 1434.65 2252.61 1428.38 2261.01 1426.58 2267.35 1430.61L2277.06 1436.9 2277.06 1393.32 2225.4 1424.62 2225.4 1483.5 2263.12 1460.64Z" fill="#FFFFFFB3" fill-rule="nonzero" fill-opacity="1"/><path d="M2307.79 1480.06C2306.46 1480.06 2305.16 1479.68 2304.05 1478.96L2256.14 1447.93C2252.92 1445.91 2251.94 1441.67 2253.95 1438.45 2255.96 1435.23 2260.2 1434.25 2263.42 1436.26 2263.49 1436.3 2263.55 1436.34 2263.61 1436.39L2307.89 1465.06 2352.53 1437.67C2355.77 1435.68 2360 1436.7 2361.99 1439.93 2363.97 1443.17 2362.96 1447.4 2359.72 1449.39L2311.38 1479.05C2310.3 1479.71 2309.05 1480.06 2307.79 1480.06Z" fill="#FFFFFFB3" fill-rule="nonzero" fill-opacity="1"/><path d="M2228.94 1375.97 2228.94 1323.22 2276.2 1300.64C2279.63 1299.01 2281.08 1294.9 2279.44 1291.47 2277.81 1288.05 2273.7 1286.6 2270.27 1288.23L2219.1 1312.68C2216.71 1313.82 2215.19 1316.24 2215.19 1318.89L2215.19 1375.97C2215.19 1379.77 2218.27 1382.84 2222.06 1382.84 2225.86 1382.84 2228.94 1379.77 2228.94 1375.97Z" fill="#FFFFFFB3" fill-rule="nonzero" fill-opacity="1"/><path d="M2400.81 1375.97 2400.81 1318.89C2400.81 1316.24 2399.29 1313.84 2396.9 1312.7L2345.73 1288.25C2342.3 1286.61 2338.19 1288.06 2336.56 1291.49 2334.92 1294.92 2336.37 1299.02 2339.8 1300.66L2387.06 1323.22 2387.06 1375.97C2387.06 1379.77 2390.14 1382.84 2393.94 1382.84 2397.73 1382.84 2400.81 1379.77 2400.81 1375.97Z" fill="#FFFFFFB3" fill-rule="nonzero" fill-opacity="1"/></g></g></g></g></g></svg>