<svg width="335" height="335" xmlns="http://www.w3.org/2000/svg" xmlns:xlink="http://www.w3.org/1999/xlink" xml:space="preserve" overflow="hidden"><g transform="translate(-2085 -1122)"><g><g><g><g><path d="M2367.44 1302.31 2343.72 1261.06 2343.72 1259.34C2345.78 1202.28 2301.09 1154.5 2244.03 1152.44 2186.97 1150.38 2139.19 1194.72 2137.12 1251.78 2137.12 1254.19 2137.12 1256.94 2137.12 1259.34 2137.12 1292 2151.91 1322.59 2177.69 1342.53L2177.69 1429.5 2286.31 1429.5 2286.31 1388.25 2303.16 1388.25C2325.5 1388.25 2343.72 1370.03 2343.72 1347.69 2343.72 1347.34 2343.72 1347.34 2343.72 1347L2343.72 1326.38 2358.84 1326.38C2367.78 1325.34 2375.69 1315.03 2367.44 1302.31ZM2152.59 1224.97 2171.5 1224.97 2171.5 1211.22C2167.72 1208.47 2167.03 1202.97 2169.78 1199.19 2172.53 1195.41 2178.03 1194.72 2181.81 1197.47 2185.59 1200.22 2186.28 1205.72 2183.53 1209.5 2183.19 1210.19 2182.5 1210.88 2181.81 1211.22L2181.81 1224.97 2195.56 1224.97 2195.56 1249.03C2199.34 1251.78 2200.03 1257.28 2197.28 1261.06 2194.53 1264.84 2189.03 1265.53 2185.25 1262.78 2181.47 1260.03 2180.78 1254.53 2183.53 1250.75 2183.88 1250.06 2184.56 1249.38 2185.25 1249.03L2185.25 1235.28 2149.5 1235.28C2150.53 1231.84 2151.22 1228.41 2152.59 1224.97ZM2248.16 1283.06C2243.34 1283.06 2239.56 1279.28 2239.56 1274.47 2239.56 1274.13 2239.56 1273.44 2239.56 1273.09L2230.62 1264.16 2216.19 1278.59 2216.19 1304.03C2219.97 1306.78 2220.66 1312.28 2217.91 1316.06 2215.16 1319.84 2209.66 1320.53 2205.88 1317.78 2202.09 1315.03 2201.41 1309.53 2204.16 1305.75 2204.5 1305.06 2205.19 1304.38 2205.88 1304.03L2205.88 1300.59 2182.84 1300.59 2166.69 1281.69C2161.88 1282.03 2157.75 1278.59 2157.41 1273.78 2157.06 1268.97 2160.5 1264.84 2165.31 1264.5 2170.12 1264.16 2174.25 1267.59 2174.59 1272.41 2174.59 1273.09 2174.59 1274.13 2174.59 1274.81L2187.66 1290.28 2205.88 1290.28 2205.88 1274.47 2223.41 1256.94 2212.75 1245.94 2212.75 1183.72C2208.97 1180.97 2208.28 1175.47 2211.03 1171.69 2213.78 1167.91 2219.28 1167.22 2223.06 1169.97 2226.84 1172.72 2227.53 1178.22 2224.78 1182 2224.44 1182.69 2223.75 1183.38 2223.06 1183.72L2223.06 1194.03 2250.56 1194.03 2250.56 1218.09C2254.34 1220.84 2255.03 1226.34 2252.28 1230.13 2249.53 1233.91 2244.03 1234.59 2240.25 1231.84 2236.47 1229.09 2235.78 1223.59 2238.53 1219.81 2238.88 1219.13 2239.56 1218.44 2240.25 1218.09L2240.25 1204.34 2223.06 1204.34 2223.06 1241.81 2247.12 1265.88C2247.47 1265.88 2247.81 1265.88 2248.16 1265.88 2252.97 1265.88 2256.75 1269.66 2256.75 1274.47 2256.75 1279.28 2252.97 1283.06 2248.16 1283.06ZM2290.09 1213.63C2285.28 1213.63 2281.5 1209.84 2281.5 1205.03 2281.5 1204.69 2281.5 1204.69 2281.5 1204.34L2267.75 1191.97 2267.75 1166.88C2271.19 1167.91 2274.62 1169.28 2278.06 1170.66L2278.06 1187.5 2288.38 1196.78C2289.06 1196.78 2289.41 1196.78 2290.09 1196.78 2294.91 1196.78 2298.69 1200.56 2298.69 1205.38 2298.69 1210.19 2294.91 1213.63 2290.09 1213.63Z" fill="#FFFFFFB3" fill-rule="nonzero" fill-opacity="1"/></g></g></g></g></g></svg>