<svg width="335" height="334" xmlns="http://www.w3.org/2000/svg" xmlns:xlink="http://www.w3.org/1999/xlink" xml:space="preserve" overflow="hidden"><g transform="translate(-2520 -1558)"><g><g><g><g><path d="M2687 1835 2687 1821.25C2739.94 1821.25 2783.25 1777.94 2783.25 1725L2797 1725C2797 1785.5 2747.5 1835 2687 1835ZM2645.75 1725C2645.75 1702.31 2664.31 1683.75 2687 1683.75 2709.69 1683.75 2728.25 1702.31 2728.25 1725 2728.25 1747.69 2709.69 1766.25 2687 1766.25 2664.31 1766.25 2645.75 1747.69 2645.75 1725ZM2625.12 1725 2611.38 1725C2611.38 1683.41 2645.41 1649.37 2687 1649.37L2687 1663.12C2652.97 1663.12 2625.12 1690.97 2625.12 1725ZM2590.75 1725 2577 1725C2577 1664.5 2626.5 1615 2687 1615L2687 1628.75C2634.06 1628.75 2590.75 1672.06 2590.75 1725ZM2748.88 1725 2762.62 1725C2762.62 1766.59 2728.59 1800.62 2687 1800.62L2687 1786.87C2721.03 1786.87 2748.88 1759.03 2748.88 1725ZM2687 1594.37C2614.81 1594.37 2556.38 1652.81 2556.38 1725 2556.38 1797.19 2614.81 1855.62 2687 1855.62 2759.19 1855.62 2817.62 1797.19 2817.62 1725 2817.62 1652.81 2759.19 1594.37 2687 1594.37Z" fill="#FFFFFFB3" fill-rule="nonzero" fill-opacity="1"/></g></g></g></g></g></svg>