<svg width="335" height="334" xmlns="http://www.w3.org/2000/svg" xmlns:xlink="http://www.w3.org/1999/xlink" xml:space="preserve" overflow="hidden"><g transform="translate(-2410 -1448)"><g><g><g><g><path d="M2684.01 1529.52C2647.55 1526.61 2613.55 1509.98 2588.88 1482.97 2584.23 1477.58 2576.1 1476.98 2570.71 1481.63 2570.23 1482.04 2569.78 1482.49 2569.37 1482.97 2544.7 1509.98 2510.71 1526.61 2474.25 1529.52 2467.47 1530.15 2462.31 1535.86 2462.36 1542.67L2462.36 1575.85C2462.36 1647.99 2508.24 1713.98 2571.94 1754.81 2576.32 1757.62 2581.93 1757.62 2586.31 1754.81 2650.01 1713.97 2695.89 1647.99 2695.89 1575.85L2695.89 1542.67C2695.94 1535.86 2690.78 1530.15 2684.01 1529.52ZM2673.55 1575.85C2673.55 1633.26 2639.35 1691.17 2582.06 1730.8L2579.13 1732.83 2576.2 1730.8C2518.91 1691.16 2484.7 1633.24 2484.7 1575.85L2484.7 1550.92 2489.04 1550.24C2521.42 1545.12 2551.55 1530.53 2575.63 1508.3L2579.12 1505.08 2582.62 1508.3C2606.7 1530.53 2636.83 1545.12 2669.2 1550.24L2673.55 1550.92Z" fill="#FFFFFFB3" fill-rule="nonzero" fill-opacity="1"/><path d="M2579.12 1519.02C2555.26 1539.89 2526.2 1553.94 2495.01 1559.67L2495.01 1575.85C2495.01 1628.88 2526.39 1682.63 2579.13 1720.26 2631.86 1682.64 2663.24 1628.88 2663.24 1575.85L2663.24 1559.67C2632.05 1553.94 2602.99 1539.89 2579.12 1519.02ZM2570.3 1653.24 2535.54 1618.47 2547.35 1606.66 2570.3 1629.61 2617.29 1582.61 2629.11 1594.43Z" fill="#FFFFFFB3" fill-rule="nonzero" fill-opacity="1"/></g></g></g></g></g></svg>