<svg width="335" height="334" xmlns="http://www.w3.org/2000/svg" xmlns:xlink="http://www.w3.org/1999/xlink" xml:space="preserve" overflow="hidden"><g transform="translate(-2465 -1503)"><g><g><g><g><path d="M2560.81 1571.31 2560.81 1598.81 2533.31 1598.81 2533.31 1571.31 2560.81 1571.31ZM2581.44 1550.69 2512.69 1550.69 2512.69 1619.44 2581.44 1619.44 2581.44 1550.69Z" fill="#FFFFFFB3" fill-rule="nonzero" fill-opacity="1"/><path d="M2560.81 1743.19 2560.81 1770.69 2533.31 1770.69 2533.31 1743.19 2560.81 1743.19ZM2581.44 1722.56 2512.69 1722.56 2512.69 1791.31 2581.44 1791.31 2581.44 1722.56Z" fill="#FFFFFFB3" fill-rule="nonzero" fill-opacity="1"/><path d="M2732.69 1571.31 2732.69 1598.81 2705.19 1598.81 2705.19 1571.31 2732.69 1571.31ZM2753.31 1550.69 2684.56 1550.69 2684.56 1619.44 2753.31 1619.44 2753.31 1550.69Z" fill="#FFFFFFB3" fill-rule="nonzero" fill-opacity="1"/><path d="M2622.69 1660.69 2553.94 1660.69 2553.94 1640.06 2602.06 1640.06 2602.06 1550.69 2663.94 1550.69 2663.94 1571.31 2622.69 1571.31Z" fill="#FFFFFFB3" fill-rule="nonzero" fill-opacity="1"/><path d="M2643.31 1591.94 2663.94 1591.94 2663.94 1619.44 2643.31 1619.44Z" fill="#FFFFFFB3" fill-rule="nonzero" fill-opacity="1"/><path d="M2639.88 1743.19 2602.06 1743.19 2602.06 1681.31 2643.31 1681.31 2643.31 1640.06 2705.19 1640.06 2705.19 1681.31 2753.31 1681.31 2753.31 1701.94 2684.56 1701.94 2684.56 1660.69 2663.94 1660.69 2663.94 1701.94 2622.69 1701.94 2622.69 1722.56 2639.88 1722.56Z" fill="#FFFFFFB3" fill-rule="nonzero" fill-opacity="1"/><path d="M2581.44 1701.94 2512.69 1701.94 2512.69 1640.06 2533.31 1640.06 2533.31 1681.31 2581.44 1681.31Z" fill="#FFFFFFB3" fill-rule="nonzero" fill-opacity="1"/><path d="M2684.56 1791.31 2602.06 1791.31 2602.06 1770.69 2663.94 1770.69 2663.94 1722.56 2684.56 1722.56Z" fill="#FFFFFFB3" fill-rule="nonzero" fill-opacity="1"/><path d="M2725.81 1640.06 2753.31 1640.06 2753.31 1660.69 2725.81 1660.69Z" fill="#FFFFFFB3" fill-rule="nonzero" fill-opacity="1"/><path d="M2753.31 1791.31 2705.19 1791.31 2705.19 1722.56 2753.31 1722.56 2753.31 1743.19 2725.81 1743.19 2725.81 1770.69 2753.31 1770.69Z" fill="#FFFFFFB3" fill-rule="nonzero" fill-opacity="1"/></g></g></g></g></g></svg>