<svg width="335" height="335" xmlns="http://www.w3.org/2000/svg" xmlns:xlink="http://www.w3.org/1999/xlink" xml:space="preserve" overflow="hidden"><g transform="translate(-2305 -1342)"><g><g><g><g><path d="M2343.81 1559.56 2343.81 1638.62 2422.87 1638.62 2422.87 1559.56ZM2367.87 1583.62 2354.12 1583.62 2354.12 1569.88 2367.87 1569.88Z" fill="#FFFFFFB3" fill-rule="nonzero" fill-opacity="1"/><path d="M2433.19 1559.56 2433.19 1638.62 2512.25 1638.62 2512.25 1559.56ZM2457.25 1583.62 2443.5 1583.62 2443.5 1569.88 2457.25 1569.88Z" fill="#FFFFFFB3" fill-rule="nonzero" fill-opacity="1"/><path d="M2388.5 1470.19 2388.5 1549.25 2467.56 1549.25 2467.56 1470.19ZM2412.56 1494.25 2398.81 1494.25 2398.81 1480.5 2412.56 1480.5Z" fill="#FFFFFFB3" fill-rule="nonzero" fill-opacity="1"/><path d="M2477.87 1470.19 2477.87 1549.25 2556.94 1549.25 2556.94 1470.19ZM2501.94 1494.25 2488.19 1494.25 2488.19 1480.5 2501.94 1480.5Z" fill="#FFFFFFB3" fill-rule="nonzero" fill-opacity="1"/><path d="M2433.19 1380.81 2433.19 1459.88 2512.25 1459.88 2512.25 1380.81ZM2457.25 1404.88 2443.5 1404.88 2443.5 1391.12 2457.25 1391.12Z" fill="#FFFFFFB3" fill-rule="nonzero" fill-opacity="1"/><path d="M2522.56 1559.56 2522.56 1638.62 2598.19 1638.62 2598.19 1559.56ZM2546.62 1583.62 2532.87 1583.62 2532.87 1569.88 2546.62 1569.88Z" fill="#FFFFFFB3" fill-rule="nonzero" fill-opacity="1"/></g></g></g></g></g></svg>