<svg width="335" height="334" xmlns="http://www.w3.org/2000/svg" xmlns:xlink="http://www.w3.org/1999/xlink" xml:space="preserve" overflow="hidden"><g transform="translate(-2355 -1393)"><g><g><g><g><path d="M2545.62 1692.62 2504.37 1692.62 2504.37 1645.19C2504.37 1633.84 2513.66 1624.56 2525 1624.56 2536.34 1624.56 2545.62 1633.84 2545.62 1645.19L2545.62 1692.62ZM2525 1510.44C2534.62 1510.44 2542.19 1518 2542.19 1527.62 2542.19 1537.25 2534.62 1544.81 2525 1544.81 2515.37 1544.81 2507.81 1537.25 2507.81 1527.62 2507.81 1518 2515.37 1510.44 2525 1510.44ZM2574.5 1497.38 2648.75 1434.81 2619.19 1405.25 2563.5 1471.25 2525 1424.5 2486.5 1471.25 2430.81 1405.25 2401.25 1434.81 2475.5 1497.38 2468.97 1564.41 2401.25 1621.81 2430.81 1651.38 2464.16 1611.84 2456.25 1692.62 2442.5 1692.62 2442.5 1713.25 2607.5 1713.25 2607.5 1692.62 2593.75 1692.62 2585.84 1611.84 2619.19 1651.38 2648.75 1621.81 2581.03 1564.75 2574.5 1497.38Z" fill="#FFFFFFB3" fill-rule="nonzero" fill-opacity="1"/></g></g></g></g></g></svg>