<svg width="2159" height="862" xmlns="http://www.w3.org/2000/svg" xmlns:xlink="http://www.w3.org/1999/xlink" xml:space="preserve" overflow="hidden"><g transform="translate(-811 -870)"><g><path d="M2833.5 1499.33C2830.7 1501.4 2828.92 1503.91 2828.92 1506.71 2828.92 1512.77 2837.35 1514.54 2847.69 1514.54 2857.6 1514.54 2864.4 1513.07 2864.4 1506.71 2864.4 1503.76 2862.92 1501.1 2854.94 1500.66ZM2764.12 1433.89C2754.07 1433.89 2748.45 1440.24 2748.45 1456.93 2748.45 1474.07 2752.74 1480.86 2763.68 1480.86 2773.43 1480.86 2778.61 1474.66 2778.61 1456.64 2778.61 1439.79 2774.02 1433.89 2764.12 1433.89ZM2636.93 1433.89C2626.88 1433.89 2621.26 1440.24 2621.26 1456.93 2621.26 1474.07 2625.55 1480.86 2636.49 1480.86 2646.25 1480.86 2651.42 1474.66 2651.42 1456.64 2651.42 1439.79 2646.84 1433.89 2636.93 1433.89ZM2300.98 1433.15C2294.62 1433.15 2288.42 1437.28 2288.27 1448.51L2312.21 1448.51C2312.21 1437.43 2308.22 1433.15 2300.98 1433.15ZM2847.4 1432.7C2839.42 1432.7 2833.36 1436.1 2833.36 1444.37 2833.36 1452.06 2837.64 1456.19 2847.1 1456.19 2855.08 1456.19 2860.55 1451.91 2860.55 1444.37 2860.55 1436.4 2855.53 1432.7 2847.4 1432.7ZM2887.92 1418.67 2912.01 1418.67 2928.12 1472.29 2928.57 1472.29 2944.09 1418.67 2967 1418.67 2936.4 1503.17C2929.9 1521.34 2923.1 1528.58 2907.43 1528.58 2901.37 1528.58 2893.83 1526.95 2890.58 1525.33L2892.21 1509.22C2896.35 1510.55 2900.63 1511.59 2903.88 1511.59 2909.06 1511.59 2912.46 1509.22 2914.82 1503.32L2917.19 1497.26ZM2764.71 1417.05C2791.47 1417.05 2801.81 1433.15 2801.81 1455.9 2801.81 1481.01 2790.28 1497.41 2762.64 1497.41 2734.71 1497.41 2725.1 1480.57 2725.1 1457.52 2725.1 1432.85 2737.96 1417.05 2764.71 1417.05ZM2637.52 1417.05C2664.28 1417.05 2674.63 1433.15 2674.63 1455.9 2674.63 1481.01 2663.1 1497.41 2635.45 1497.41 2607.52 1497.41 2597.91 1480.57 2597.91 1457.52 2597.91 1432.85 2610.77 1417.05 2637.52 1417.05ZM2560.9 1417.05C2577.9 1417.05 2585.29 1425.47 2585.29 1443.04L2585.29 1495.63 2562.97 1495.63 2562.97 1446.89C2562.97 1438.61 2559.72 1435.07 2552.77 1435.07 2546.71 1435.07 2540.65 1438.47 2537.69 1441.12L2537.69 1495.63 2515.37 1495.63 2515.37 1418.67 2535.18 1418.67 2536.36 1426.35C2541.98 1421.18 2550.4 1417.05 2560.9 1417.05ZM2386.29 1417.05C2404.77 1417.05 2416.89 1427.39 2418.37 1446.15L2398.41 1449.1C2397.52 1439.5 2394.57 1434.18 2385.85 1434.18 2377.42 1434.18 2370.33 1438.17 2370.33 1456.04 2370.33 1473.92 2376.09 1479.98 2385.55 1479.98 2394.12 1479.98 2398.56 1475.69 2399.89 1465.94L2418.66 1469.49C2416 1488.84 2402.11 1497.41 2384.07 1497.41 2358.35 1497.41 2346.97 1481.16 2346.97 1458.41 2346.97 1431.97 2361.31 1417.05 2386.29 1417.05ZM2302.16 1417.05C2325.52 1417.05 2335.27 1431.23 2335.27 1452.65 2335.27 1455.16 2335.13 1460.03 2334.83 1462.69L2287.97 1462.69C2288.42 1475.4 2293.74 1480.12 2303.49 1480.12 2311.48 1480.12 2314.58 1475.69 2316.06 1469.19L2334.83 1473.77C2332.02 1488.1 2320.49 1497.41 2302.16 1497.41 2273.64 1497.41 2264.47 1478.2 2264.47 1457.37 2264.47 1429.6 2281.47 1417.05 2302.16 1417.05ZM2881.1 1410.1C2883.02 1410.1 2885.09 1410.55 2887.31 1411.43L2887.31 1426.06C2882.73 1425.61 2878.88 1425.91 2874.6 1427.24 2879.03 1432.26 2880.95 1438.32 2880.95 1444.52 2880.95 1461.81 2866.91 1472.15 2847.1 1472.15 2841.93 1472.15 2838.53 1471.7 2834.24 1470.52 2832.91 1471.85 2831.43 1473.33 2831.43 1475.25 2831.43 1477.46 2832.76 1478.94 2838.38 1479.24L2860.26 1480.57C2876.67 1481.6 2886.13 1487.21 2886.13 1502.73 2886.13 1521.63 2868.54 1528.87 2845.92 1528.87 2817.69 1528.87 2808.82 1521.63 2808.82 1511 2808.82 1503.76 2814.29 1498.74 2822.71 1497.11L2822.71 1496.52C2815.18 1494.3 2811.48 1489.87 2811.48 1483.52 2811.48 1475.84 2816.21 1471.56 2823.45 1466.39 2816.51 1462.4 2812.22 1455.31 2812.22 1445.56 2812.22 1429.16 2824.49 1417.05 2846.51 1417.05 2854.94 1417.05 2861.88 1418.37 2866.91 1421.77 2869.57 1416.01 2873.86 1410.1 2881.1 1410.1ZM2171.25 1388.68 2256.84 1388.68 2256.84 1407.89 2225.65 1407.89 2225.65 1495.63 2202.74 1495.63 2202.74 1407.89 2171.25 1407.89ZM2687.69 1384.1 2710.01 1384.1 2710.01 1495.63 2687.69 1495.63ZM2429.43 1384.1 2451.61 1384.1 2451.61 1425.76C2457.08 1421.48 2464.47 1417.05 2475.4 1417.05 2491.96 1417.05 2499.35 1425.47 2499.35 1443.04L2499.35 1495.63 2477.03 1495.63 2477.03 1447.03C2477.03 1438.76 2473.78 1435.22 2466.83 1435.22 2460.77 1435.22 2454.71 1438.61 2451.75 1441.27L2451.75 1495.63 2429.43 1495.63ZM2468.49 1255.24C2458.44 1255.24 2452.83 1261.6 2452.83 1278.29 2452.83 1295.42 2457.11 1302.22 2468.05 1302.22 2477.81 1302.22 2482.98 1296.02 2482.98 1277.99 2482.98 1261.15 2478.4 1255.24 2468.49 1255.24ZM2392.06 1240.03 2414.38 1240.03 2414.38 1316.99 2392.06 1316.99ZM2275.19 1240.03 2297.51 1240.03 2297.51 1316.99 2275.19 1316.99ZM2564.34 1238.4C2581.33 1238.4 2588.73 1246.82 2588.73 1264.4L2588.73 1316.99 2566.41 1316.99 2566.41 1268.24C2566.41 1259.97 2563.15 1256.42 2556.21 1256.42 2550.15 1256.42 2544.09 1259.82 2541.13 1262.48L2541.13 1316.99 2518.81 1316.99 2518.81 1240.03 2538.62 1240.03 2539.8 1247.71C2545.42 1242.54 2553.84 1238.4 2564.34 1238.4ZM2469.09 1238.4C2495.84 1238.4 2506.19 1254.5 2506.19 1277.25 2506.19 1302.37 2494.66 1318.76 2467.02 1318.76 2439.08 1318.76 2429.47 1301.92 2429.47 1278.88 2429.47 1254.21 2442.33 1238.4 2469.09 1238.4ZM2345.41 1238.4C2362.85 1238.4 2372.46 1246.08 2376.16 1259.08L2358.27 1264.4C2356.5 1257.75 2353.24 1253.18 2345.12 1253.18 2337.72 1253.18 2334.62 1256.28 2334.62 1260.56 2334.62 1266.62 2340.83 1267.8 2350.44 1269.57 2363.15 1271.94 2377.49 1274.89 2377.49 1292.91 2377.49 1310.34 2362.56 1318.76 2343.49 1318.76 2323.83 1318.76 2313.34 1311.23 2310.82 1298.38L2328.86 1292.17C2330.63 1298.23 2333.73 1303.99 2344.23 1303.99 2351.77 1303.99 2355.91 1301.48 2355.91 1296.46 2355.91 1290.55 2349.85 1288.92 2341.12 1287.3 2328.86 1284.94 2313.34 1282.13 2313.34 1263.37 2313.34 1246.53 2328.12 1238.4 2345.41 1238.4ZM2169.63 1210.04 2195.2 1210.04 2219.59 1294.54 2220.47 1294.54 2244.86 1210.04 2268.37 1210.04 2235.11 1316.99 2204.36 1316.99ZM2403.3 1202.95C2411.72 1202.95 2416.75 1207.82 2416.75 1216.39 2416.75 1224.96 2411.72 1229.98 2403.3 1229.98 2394.73 1229.98 2389.85 1224.96 2389.85 1216.39 2389.85 1207.82 2394.73 1202.95 2403.3 1202.95ZM2286.42 1202.95C2294.85 1202.95 2299.87 1207.82 2299.87 1216.39 2299.87 1224.96 2294.85 1229.98 2286.42 1229.98 2277.85 1229.98 2272.97 1224.96 2272.97 1216.39 2272.97 1207.82 2277.85 1202.95 2286.42 1202.95ZM1159.78 1085.77 1289.16 1085.77 1355.43 1356.46 1360.16 1356.46 1429.58 1085.77 1540.5 1085.77 1545.82 1085.77 1871.84 1085.77 1871.84 1176.17 1764.02 1176.17 1764.02 1466.32 1649.89 1466.32 1649.89 1176.17 1540.5 1176.17 1540.5 1103.35 1430.64 1466.32 1277.59 1466.32ZM2531.4 1080.92C2526.23 1080.92 2520.47 1084.02 2517.07 1086.83L2517.07 1120.51C2519.28 1122.58 2525.05 1125.68 2530.52 1125.68 2540.86 1125.68 2545 1117.11 2545 1102.19 2545 1086.68 2540.42 1080.92 2531.4 1080.92ZM2317.24 1080.04C2307.19 1080.04 2301.58 1086.39 2301.58 1103.08 2301.58 1120.22 2305.86 1127.01 2316.8 1127.01 2326.56 1127.01 2331.73 1120.81 2331.73 1102.79 2331.73 1085.95 2327.15 1080.04 2317.24 1080.04ZM2761.61 1079.3C2755.25 1079.3 2749.04 1083.43 2748.9 1094.66L2772.84 1094.66C2772.84 1083.58 2768.85 1079.3 2761.61 1079.3ZM1003.39 1078.93C1093.85 1078.93 1159.07 1122.03 1161.7 1224.53L1058.61 1234.52C1057.56 1183.53 1037.05 1167.24 1001.29 1167.24 956.582 1167.24 931.336 1198.25 931.336 1274.46 931.336 1353.83 953.426 1384.32 1001.81 1384.32 1045.47 1384.32 1054.93 1355.94 1060.72 1327.55L1161.7 1343.32C1151.71 1440.03 1067.56 1472.62 997.079 1472.62 865.068 1472.62 813 1400.09 813 1278.67 813 1164.61 872.957 1078.93 1003.39 1078.93ZM2580.39 1064.82 2602.71 1064.82 2602.71 1113.42C2602.71 1121.69 2605.37 1125.39 2612.46 1125.39 2618.23 1125.39 2624.14 1121.99 2627.1 1119.33L2627.1 1064.82 2649.42 1064.82 2649.42 1141.78 2630.2 1141.78 2628.58 1133.51C2623.11 1139.72 2614.53 1143.41 2604.04 1143.41 2588.22 1143.41 2580.39 1134.84 2580.39 1117.85ZM2855.93 1063.2C2857.12 1063.2 2858.45 1063.2 2859.78 1063.34L2859.78 1085.06C2849.73 1084.17 2839.82 1086.83 2833.32 1092L2833.32 1141.78 2811 1141.78 2811 1064.82 2830.07 1064.82 2831.69 1076.93C2836.87 1069.4 2844.11 1063.2 2855.93 1063.2ZM2762.79 1063.2C2786.15 1063.2 2795.9 1077.38 2795.9 1098.8 2795.9 1101.31 2795.75 1106.18 2795.46 1108.84L2748.6 1108.84C2749.04 1121.55 2754.37 1126.27 2764.12 1126.27 2772.1 1126.27 2775.21 1121.84 2776.69 1115.34L2795.46 1119.92C2792.65 1134.25 2781.12 1143.56 2762.79 1143.56 2734.26 1143.56 2725.1 1124.35 2725.1 1103.52 2725.1 1075.75 2742.1 1063.2 2762.79 1063.2ZM2539.39 1063.2C2555.79 1063.2 2568.36 1073.24 2568.36 1101.6 2568.36 1132.18 2554.02 1143.56 2537.02 1143.56 2527.56 1143.56 2521.5 1140.6 2516.62 1136.17L2516.62 1173.1 2495.04 1173.1 2495.04 1064.82 2513.96 1064.82 2515.29 1072.65C2521.94 1066 2530.81 1063.2 2539.39 1063.2ZM2410.87 1063.2C2420.03 1063.2 2426.98 1065.85 2430.53 1072.8 2436 1067.18 2444.13 1063.2 2454.47 1063.2 2469.85 1063.2 2477.53 1071.62 2477.53 1088.75L2477.53 1141.78 2455.21 1141.78 2455.21 1092.3C2455.21 1085.06 2452.99 1081.22 2446.49 1081.22 2442.35 1081.22 2436.59 1083.58 2433.78 1086.54 2433.78 1087.13 2433.93 1087.72 2433.93 1088.46L2433.93 1141.78 2411.61 1141.78 2411.61 1092.3C2411.61 1085.06 2409.39 1081.22 2403.03 1081.22 2398.45 1081.22 2392.83 1083.73 2389.88 1086.68L2389.88 1141.78 2367.56 1141.78 2367.56 1064.82 2386.48 1064.82 2387.51 1072.06C2393.57 1067.04 2400.96 1063.2 2410.87 1063.2ZM2317.84 1063.2C2344.59 1063.2 2354.94 1079.3 2354.94 1102.05 2354.94 1127.16 2343.41 1143.56 2315.77 1143.56 2287.83 1143.56 2278.22 1126.72 2278.22 1103.67 2278.22 1079 2291.08 1063.2 2317.84 1063.2ZM2693.08 1039.12 2693.08 1064.82 2713.48 1064.82 2713.48 1081.07 2693.08 1081.07 2693.08 1115.49C2693.08 1122.28 2695 1125.83 2702.1 1125.83 2706.53 1125.83 2711.85 1124.06 2714.81 1122.28L2717.91 1138.09C2714.07 1140.6 2705.05 1143.56 2695.3 1143.56 2679.19 1143.56 2670.76 1136.17 2670.76 1118.59L2670.76 1081.07 2659.23 1081.07 2659.23 1064.82 2670.76 1064.82 2670.76 1042.07ZM2227.27 1032.91C2251.22 1032.91 2268.22 1044.43 2269.4 1071.32L2248.56 1073.09C2247.23 1057.88 2240.72 1051.67 2226.98 1051.67 2209.54 1051.67 2199.19 1062.9 2199.19 1088.31 2199.19 1114.6 2208.5 1124.8 2225.35 1124.8 2240.72 1124.8 2246.05 1116.82 2248.56 1105.59L2269.1 1109.14C2265.71 1134.69 2244.27 1143.56 2225.06 1143.56 2189.58 1143.56 2175.69 1122.58 2175.69 1089.49 2175.69 1055.51 2193.72 1032.91 2227.27 1032.91ZM1640.29 874C1876.53 874 2068.05 1065.4 2068.05 1301.5 2068.05 1537.6 1876.53 1729 1640.29 1729L1640.29 1695.59C1858.07 1695.59 2034.61 1519.15 2034.61 1301.5 2034.61 1083.85 1858.07 907.415 1640.29 907.415Z" fill="#000000" fill-rule="evenodd" fill-opacity="1"/></g></g></svg>