<svg width="2159" height="862" xmlns="http://www.w3.org/2000/svg" xmlns:xlink="http://www.w3.org/1999/xlink" xml:space="preserve" overflow="hidden"><defs><linearGradient x1="582" y1="1192.5" x2="2736" y2="1192.5" gradientUnits="userSpaceOnUse" spreadMethod="reflect" id="fill0"><stop offset="0" stop-color="#19F2B5" stop-opacity="1"/><stop offset="0.04" stop-color="#19F2B5" stop-opacity="1"/><stop offset="0.84" stop-color="#FFFFFF" stop-opacity="1"/><stop offset="1" stop-color="#FFFFFF" stop-opacity="1"/></linearGradient></defs><g transform="translate(-577 -760)"><g><path d="M2602.5 1390.33C2599.7 1392.4 2597.92 1394.91 2597.92 1397.71 2597.92 1403.77 2606.35 1405.54 2616.69 1405.54 2626.6 1405.54 2633.4 1404.07 2633.4 1397.71 2633.4 1394.76 2631.92 1392.1 2623.94 1391.66ZM2533.12 1324.89C2523.07 1324.89 2517.45 1331.24 2517.45 1347.93 2517.45 1365.07 2521.74 1371.86 2532.68 1371.86 2542.43 1371.86 2547.61 1365.66 2547.61 1347.64 2547.61 1330.79 2543.02 1324.89 2533.12 1324.89ZM2405.93 1324.89C2395.88 1324.89 2390.26 1331.24 2390.26 1347.93 2390.26 1365.07 2394.55 1371.86 2405.49 1371.86 2415.25 1371.86 2420.42 1365.66 2420.42 1347.64 2420.42 1330.79 2415.84 1324.89 2405.93 1324.89ZM2069.98 1324.15C2063.62 1324.15 2057.42 1328.28 2057.27 1339.51L2081.21 1339.51C2081.21 1328.43 2077.22 1324.15 2069.98 1324.15ZM2616.4 1323.7C2608.42 1323.7 2602.36 1327.1 2602.36 1335.37 2602.36 1343.06 2606.64 1347.19 2616.1 1347.19 2624.08 1347.19 2629.55 1342.91 2629.55 1335.37 2629.55 1327.4 2624.53 1323.7 2616.4 1323.7ZM2656.92 1309.67 2681.01 1309.67 2697.12 1363.29 2697.57 1363.29 2713.09 1309.67 2736 1309.67 2705.4 1394.17C2698.9 1412.34 2692.1 1419.58 2676.43 1419.58 2670.37 1419.58 2662.83 1417.95 2659.58 1416.33L2661.21 1400.22C2665.35 1401.55 2669.63 1402.59 2672.88 1402.59 2678.06 1402.59 2681.46 1400.22 2683.82 1394.32L2686.19 1388.26ZM2533.71 1308.05C2560.47 1308.05 2570.81 1324.15 2570.81 1346.9 2570.81 1372.01 2559.28 1388.41 2531.64 1388.41 2503.71 1388.41 2494.1 1371.57 2494.1 1348.52 2494.1 1323.85 2506.96 1308.05 2533.71 1308.05ZM2406.52 1308.05C2433.28 1308.05 2443.63 1324.15 2443.63 1346.9 2443.63 1372.01 2432.1 1388.41 2404.45 1388.41 2376.52 1388.41 2366.91 1371.57 2366.91 1348.52 2366.91 1323.85 2379.77 1308.05 2406.52 1308.05ZM2329.9 1308.05C2346.9 1308.05 2354.29 1316.47 2354.29 1334.04L2354.29 1386.63 2331.97 1386.63 2331.97 1337.89C2331.97 1329.61 2328.72 1326.07 2321.77 1326.07 2315.71 1326.07 2309.65 1329.47 2306.69 1332.12L2306.69 1386.63 2284.37 1386.63 2284.37 1309.67 2304.18 1309.67 2305.36 1317.35C2310.98 1312.18 2319.4 1308.05 2329.9 1308.05ZM2155.29 1308.05C2173.77 1308.05 2185.89 1318.39 2187.37 1337.15L2167.41 1340.1C2166.52 1330.5 2163.57 1325.18 2154.85 1325.18 2146.42 1325.18 2139.33 1329.17 2139.33 1347.04 2139.33 1364.92 2145.09 1370.98 2154.55 1370.98 2163.12 1370.98 2167.56 1366.69 2168.89 1356.94L2187.66 1360.49C2185 1379.84 2171.11 1388.41 2153.07 1388.41 2127.35 1388.41 2115.97 1372.16 2115.97 1349.41 2115.97 1322.97 2130.31 1308.05 2155.29 1308.05ZM2071.16 1308.05C2094.52 1308.05 2104.27 1322.23 2104.27 1343.65 2104.27 1346.16 2104.13 1351.03 2103.83 1353.69L2056.97 1353.69C2057.42 1366.4 2062.74 1371.12 2072.49 1371.12 2080.48 1371.12 2083.58 1366.69 2085.06 1360.19L2103.83 1364.77C2101.02 1379.1 2089.49 1388.41 2071.16 1388.41 2042.64 1388.41 2033.47 1369.2 2033.47 1348.37 2033.47 1320.6 2050.47 1308.05 2071.16 1308.05ZM2650.1 1301.1C2652.02 1301.1 2654.09 1301.55 2656.31 1302.43L2656.31 1317.06C2651.73 1316.61 2647.88 1316.91 2643.6 1318.24 2648.03 1323.26 2649.95 1329.32 2649.95 1335.52 2649.95 1352.81 2635.91 1363.15 2616.1 1363.15 2610.93 1363.15 2607.53 1362.7 2603.24 1361.52 2601.91 1362.85 2600.43 1364.33 2600.43 1366.25 2600.43 1368.46 2601.76 1369.94 2607.38 1370.24L2629.26 1371.57C2645.67 1372.6 2655.13 1378.21 2655.13 1393.73 2655.13 1412.63 2637.54 1419.87 2614.92 1419.87 2586.69 1419.87 2577.82 1412.63 2577.82 1402 2577.82 1394.76 2583.29 1389.74 2591.71 1388.11L2591.71 1387.52C2584.18 1385.3 2580.48 1380.87 2580.48 1374.52 2580.48 1366.84 2585.21 1362.56 2592.45 1357.38 2585.51 1353.4 2581.22 1346.31 2581.22 1336.56 2581.22 1320.16 2593.49 1308.05 2615.51 1308.05 2623.94 1308.05 2630.88 1309.37 2635.91 1312.77 2638.57 1307.01 2642.86 1301.1 2650.1 1301.1ZM1940.25 1279.68 2025.84 1279.68 2025.84 1298.89 1994.65 1298.89 1994.65 1386.63 1971.74 1386.63 1971.74 1298.89 1940.25 1298.89ZM2456.69 1275.1 2479.01 1275.1 2479.01 1386.63 2456.69 1386.63ZM2198.43 1275.1 2220.61 1275.1 2220.61 1316.76C2226.08 1312.48 2233.47 1308.05 2244.4 1308.05 2260.96 1308.05 2268.35 1316.47 2268.35 1334.04L2268.35 1386.63 2246.03 1386.63 2246.03 1338.03C2246.03 1329.76 2242.78 1326.22 2235.83 1326.22 2229.77 1326.22 2223.71 1329.61 2220.75 1332.27L2220.75 1386.63 2198.43 1386.63ZM2237.49 1146.24C2227.44 1146.24 2221.83 1152.6 2221.83 1169.29 2221.83 1186.42 2226.11 1193.22 2237.05 1193.22 2246.81 1193.22 2251.98 1187.02 2251.98 1168.99 2251.98 1152.15 2247.4 1146.24 2237.49 1146.24ZM2161.06 1131.03 2183.38 1131.03 2183.38 1207.99 2161.06 1207.99ZM2044.19 1131.03 2066.51 1131.03 2066.51 1207.99 2044.19 1207.99ZM2333.34 1129.4C2350.33 1129.4 2357.73 1137.82 2357.73 1155.4L2357.73 1207.99 2335.41 1207.99 2335.41 1159.24C2335.41 1150.97 2332.15 1147.42 2325.21 1147.42 2319.15 1147.42 2313.09 1150.82 2310.13 1153.48L2310.13 1207.99 2287.81 1207.99 2287.81 1131.03 2307.62 1131.03 2308.8 1138.71C2314.42 1133.54 2322.84 1129.4 2333.34 1129.4ZM2238.09 1129.4C2264.84 1129.4 2275.19 1145.5 2275.19 1168.25 2275.19 1193.37 2263.66 1209.76 2236.02 1209.76 2208.08 1209.76 2198.47 1192.92 2198.47 1169.88 2198.47 1145.21 2211.33 1129.4 2238.09 1129.4ZM2114.41 1129.4C2131.85 1129.4 2141.46 1137.08 2145.16 1150.08L2127.27 1155.4C2125.5 1148.75 2122.24 1144.17 2114.12 1144.17 2106.72 1144.17 2103.62 1147.28 2103.62 1151.56 2103.62 1157.62 2109.83 1158.8 2119.44 1160.57 2132.15 1162.94 2146.49 1165.89 2146.49 1183.91 2146.49 1201.34 2131.56 1209.76 2112.49 1209.76 2092.83 1209.76 2082.34 1202.23 2079.82 1189.38L2097.86 1183.17C2099.63 1189.23 2102.73 1194.99 2113.23 1194.99 2120.77 1194.99 2124.91 1192.48 2124.91 1187.46 2124.91 1181.55 2118.85 1179.92 2110.12 1178.3 2097.86 1175.94 2082.34 1173.13 2082.34 1154.37 2082.34 1137.53 2097.12 1129.4 2114.41 1129.4ZM1938.63 1101.04 1964.2 1101.04 1988.59 1185.54 1989.47 1185.54 2013.86 1101.04 2037.37 1101.04 2004.11 1207.99 1973.36 1207.99ZM2172.3 1093.95C2180.72 1093.95 2185.75 1098.82 2185.75 1107.39 2185.75 1115.96 2180.72 1120.98 2172.3 1120.98 2163.73 1120.98 2158.85 1115.96 2158.85 1107.39 2158.85 1098.82 2163.73 1093.95 2172.3 1093.95ZM2055.42 1093.95C2063.85 1093.95 2068.87 1098.82 2068.87 1107.39 2068.87 1115.96 2063.85 1120.98 2055.42 1120.98 2046.85 1120.98 2041.97 1115.96 2041.97 1107.39 2041.97 1098.82 2046.85 1093.95 2055.42 1093.95ZM928.777 976.766 1058.16 976.766 1124.43 1247.46 1129.16 1247.46 1198.58 976.766 1309.5 976.766 1314.82 976.766 1640.84 976.766 1640.84 1067.17 1533.02 1067.17 1533.02 1357.32 1418.89 1357.32 1418.89 1067.17 1309.5 1067.17 1309.5 994.347 1199.64 1357.32 1046.59 1357.32ZM2300.4 971.922C2295.23 971.922 2289.47 975.024 2286.07 977.831L2286.07 1011.51C2288.28 1013.58 2294.05 1016.68 2299.52 1016.68 2309.86 1016.68 2314 1008.11 2314 993.194 2314 977.683 2309.42 971.922 2300.4 971.922ZM2086.24 971.036C2076.19 971.036 2070.58 977.388 2070.58 994.081 2070.58 1011.22 2074.86 1018.01 2085.8 1018.01 2095.56 1018.01 2100.73 1011.81 2100.73 993.785 2100.73 976.945 2096.15 971.036 2086.24 971.036ZM2530.61 970.297C2524.25 970.297 2518.04 974.433 2517.9 985.661L2541.84 985.661C2541.84 974.581 2537.85 970.297 2530.61 970.297ZM772.39 969.933C862.852 969.933 928.069 1013.03 930.698 1115.53L827.614 1125.52C826.562 1074.53 806.051 1058.24 770.287 1058.24 725.582 1058.24 700.336 1089.25 700.336 1165.46 700.336 1244.83 722.426 1275.32 770.813 1275.32 814.466 1275.32 823.933 1246.94 829.718 1218.55L930.698 1234.32C920.705 1331.03 836.555 1363.62 766.079 1363.62 634.068 1363.62 582 1291.09 582 1169.67 582 1055.61 641.957 969.933 772.39 969.933ZM2349.39 955.82 2371.71 955.82 2371.71 1004.42C2371.71 1012.69 2374.37 1016.39 2381.46 1016.39 2387.23 1016.39 2393.14 1012.99 2396.1 1010.33L2396.1 955.82 2418.42 955.82 2418.42 1032.78 2399.2 1032.78 2397.58 1024.51C2392.11 1030.72 2383.53 1034.41 2373.04 1034.41 2357.22 1034.41 2349.39 1025.84 2349.39 1008.85ZM2624.93 954.195C2626.12 954.195 2627.45 954.195 2628.78 954.343L2628.78 976.058C2618.73 975.172 2608.82 977.831 2602.32 983.001L2602.32 1032.78 2580 1032.78 2580 955.82 2599.07 955.82 2600.69 967.934C2605.87 960.4 2613.11 954.195 2624.93 954.195ZM2531.79 954.195C2555.15 954.195 2564.9 968.377 2564.9 989.797 2564.9 992.308 2564.75 997.183 2564.46 999.842L2517.6 999.842C2518.04 1012.55 2523.37 1017.27 2533.12 1017.27 2541.1 1017.27 2544.21 1012.84 2545.69 1006.34L2564.46 1010.92C2561.65 1025.25 2550.12 1034.56 2531.79 1034.56 2503.26 1034.56 2494.1 1015.35 2494.1 994.524 2494.1 966.752 2511.1 954.195 2531.79 954.195ZM2308.39 954.195C2324.79 954.195 2337.36 964.24 2337.36 992.604 2337.36 1023.18 2323.02 1034.56 2306.02 1034.56 2296.56 1034.56 2290.5 1031.6 2285.62 1027.17L2285.62 1064.1 2264.04 1064.1 2264.04 955.82 2282.96 955.82 2284.29 963.65C2290.94 957.002 2299.81 954.195 2308.39 954.195ZM2179.87 954.195C2189.03 954.195 2195.98 956.854 2199.53 963.797 2205 958.184 2213.13 954.195 2223.47 954.195 2238.85 954.195 2246.53 962.616 2246.53 979.752L2246.53 1032.78 2224.21 1032.78 2224.21 983.297C2224.21 976.058 2221.99 972.217 2215.49 972.217 2211.35 972.217 2205.59 974.581 2202.78 977.536 2202.78 978.126 2202.93 978.718 2202.93 979.456L2202.93 1032.78 2180.61 1032.78 2180.61 983.297C2180.61 976.058 2178.39 972.217 2172.03 972.217 2167.45 972.217 2161.83 974.729 2158.88 977.683L2158.88 1032.78 2136.56 1032.78 2136.56 955.82 2155.48 955.82 2156.51 963.059C2162.57 958.036 2169.96 954.195 2179.87 954.195ZM2086.84 954.195C2113.59 954.195 2123.94 970.297 2123.94 993.046 2123.94 1018.16 2112.41 1034.56 2084.77 1034.56 2056.83 1034.56 2047.22 1017.72 2047.22 994.672 2047.22 970.002 2060.08 954.195 2086.84 954.195ZM2462.08 930.116 2462.08 955.82 2482.48 955.82 2482.48 972.07 2462.08 972.07 2462.08 1006.49C2462.08 1013.28 2464 1016.83 2471.1 1016.83 2475.53 1016.83 2480.85 1015.06 2483.81 1013.28L2486.91 1029.09C2483.07 1031.6 2474.05 1034.56 2464.3 1034.56 2448.19 1034.56 2439.76 1027.17 2439.76 1009.59L2439.76 972.07 2428.23 972.07 2428.23 955.82 2439.76 955.82 2439.76 933.071ZM1996.27 923.912C2020.22 923.912 2037.22 935.434 2038.4 962.32L2017.56 964.093C2016.23 948.877 2009.72 942.673 1995.98 942.673 1978.54 942.673 1968.19 953.9 1968.19 979.308 1968.19 1005.6 1977.5 1015.8 1994.35 1015.8 2009.72 1015.8 2015.05 1007.82 2017.56 996.592L2038.11 1000.14C2034.71 1025.69 2013.27 1034.56 1994.06 1034.56 1958.58 1034.56 1944.69 1013.58 1944.69 980.49 1944.69 946.513 1962.72 923.912 1996.27 923.912ZM1409.29 765C1645.53 765 1837.05 956.398 1837.05 1192.5 1837.05 1428.6 1645.53 1620 1409.29 1620L1409.29 1586.59C1627.07 1586.59 1803.61 1410.15 1803.61 1192.5 1803.61 974.853 1627.07 798.415 1409.29 798.415Z" fill="url(#fill0)" fill-rule="evenodd"/></g></g></svg>