<svg width="96" height="98" xmlns="http://www.w3.org/2000/svg" xmlns:xlink="http://www.w3.org/1999/xlink" xml:space="preserve" overflow="hidden"><g transform="translate(-544 -326)"><g><g><g><g><path d="M619.636 385.229C616.008 382.261 611.698 380.412 607.164 378.792L602.515 376.884 602.367 376.808C602.334 376.797 602.301 376.789 602.267 376.782L602.248 376.774C601.496 376.468 601.005 375.736 601.008 374.924L601.008 371.977C604.783 369.152 607.007 364.715 607.01 360L607.01 359.342 609.2 356.529C610.072 355.405 610.47 353.986 610.311 352.573 609.734 346.224 605.885 340.635 600.159 337.832 599.397 337.468 598.497 337.545 597.807 338.032L597.683 338.118 597.236 337.507C596.769 336.855 596.066 336.411 595.276 336.27 594.265 336.093 593.241 336.003 592.215 336 583.476 335.999 575.974 342.218 574.355 350.806L574.318 351.006C573.901 353.256 573.031 355.397 571.76 357.3 571.453 357.759 571.577 358.38 572.037 358.687 572.201 358.797 572.394 358.855 572.592 358.855L577.009 358.855 577.009 360C577.012 364.71 579.231 369.144 583 371.969L583 374.924C583.002 375.736 582.511 376.468 581.759 376.774L576.831 378.8C573.772 379.834 570.815 381.15 568 382.731L568 385.09C570.749 383.402 573.673 382.019 576.721 380.964L574.634 390.293C574.513 390.832 574.852 391.367 575.391 391.488 575.462 391.504 575.536 391.512 575.609 391.512L580.07 391.512 577.77 395.945C577.544 396.381 577.668 396.916 578.062 397.208L591.036 406.841 591.036 412.041C585.515 412.02 580 411.662 574.523 410.969 574.268 411.645 573.878 412.261 573.375 412.779 579.654 413.629 585.985 414.038 592.321 414.004 605.421 414.004 618.415 412.434 622.594 409.298L623 409 623 391.982C622.951 389.34 621.715 386.86 619.636 385.229ZM602.156 380.054 602.419 379.295 602.482 379.112 605.173 380.483 607.192 389.512 602.336 389.512C601.784 389.512 601.336 389.96 601.336 390.512 601.336 390.672 601.374 390.83 601.448 390.972L604.108 396.109 594.013 403.609ZM600.691 378.173 600.46 378.842C597.904 380.345 594.975 381.093 592.011 381 589.063 381.091 586.149 380.352 583.6 378.868L583.351 378.148C584.387 377.401 585 376.201 585 374.924L585 373.256C589.378 375.584 594.626 375.586 599.006 373.261L599.006 374.924C599.006 376.217 599.634 377.428 600.691 378.173ZM574.357 356.851C575.279 355.135 575.93 353.287 576.285 351.372L576.321 351.172C577.941 342.494 586.237 336.73 594.935 338.238 595.212 338.294 595.457 338.454 595.62 338.685L596.643 340.085C596.964 340.524 597.576 340.627 598.022 340.316L598.948 339.671C599.045 339.6 599.172 339.584 599.284 339.63 604.381 342.124 607.807 347.096 608.323 352.747 608.439 353.66 608.187 354.581 607.623 355.308L606.91 356.222C606.683 354.842 606.075 353.553 605.156 352.5L601.761 348.605C601.512 348.32 601.123 348.2 600.756 348.295 598.904 348.775 597.741 350.232 596.509 351.774 594.609 354.152 592.456 356.848 587.009 356.848ZM579.009 360 579.009 358.851 587.009 358.851C593.42 358.851 596.109 355.484 598.073 353.025 598.763 351.991 599.66 351.111 600.707 350.441L603.65 353.817C604.526 354.822 605.009 356.111 605.01 357.444L605.01 359.002 605.01 360.002C605.002 367.178 599.187 372.994 592.01 373.002 584.832 372.995 579.016 367.178 579.009 360ZM579.945 396.107 582.606 390.969C582.86 390.479 582.669 389.875 582.178 389.621 582.036 389.548 581.879 389.509 581.719 389.509L576.861 389.509 578.882 380.48 581.571 379.109 581.625 379.266 581.911 380.091 590.041 403.602ZM592.027 403.226 584.557 381.626C589.369 383.464 594.691 383.459 599.5 381.612ZM621 407.976C616.8 410.65 605.048 412 593.044 412.047L593.044 406.815 605.983 397.208C606.377 396.916 606.501 396.381 606.275 395.945L603.975 391.512 608.44 391.512C608.992 391.512 609.44 391.065 609.44 390.512 609.44 390.439 609.432 390.365 609.416 390.293L607.333 380.982C611.316 382.288 615.052 384.252 618.387 386.791 619.996 388.047 620.955 389.96 621 392Z" fill="#000000" fill-rule="nonzero" fill-opacity="1"/><path d="M566 392.7 566 382.6C566.023 381.377 566.663 380.248 567.7 379.6 568.242 379.353 568.482 378.714 568.236 378.171 568.225 378.147 568.213 378.123 568.2 378.1 568.04 377.737 567.688 377.496 567.292 377.48 567.227 377.48 567.163 377.487 567.1 377.5L555.7 377.5C555.076 377.462 554.54 377.936 554.502 378.56 554.501 378.573 554.5 378.586 554.5 378.6 554.465 379.053 554.7 379.484 555.1 379.7 556.169 380.317 556.82 381.466 556.8 382.7L556.8 392.8 550.3 407.6C549.527 409.271 550.254 411.251 551.924 412.025 551.982 412.052 552.041 412.077 552.1 412.1 552.538 412.305 553.017 412.407 553.5 412.4L569.5 412.4C571.362 412.415 572.885 410.919 572.9 409.056 572.9 409.038 572.9 409.019 572.9 409 572.907 408.517 572.805 408.038 572.6 407.6ZM564.979 379.5C564.351 380.413 564.01 381.492 564 382.6L564 386 558.8 386 558.8 382.7C558.805 381.556 558.456 380.438 557.8 379.5ZM569.5 410.4 553.5 410.4C553.329 410.405 553.159 410.375 553 410.311L552.917 410.27 552.831 410.236C552.493 410.104 552.226 409.836 552.094 409.498 551.956 409.161 551.964 408.783 552.115 408.452L552.126 408.428 552.137 408.404 558.637 393.604 558.806 393.22 558.806 388 564 388 564 393.122 564.171 393.509 570.771 408.409 570.79 408.452 570.811 408.494C570.875 408.653 570.905 408.823 570.9 408.994 570.921 409.75 570.325 410.379 569.569 410.4 569.546 410.401 569.523 410.401 569.5 410.4Z" fill="#000000" fill-rule="nonzero" fill-opacity="1"/><path d="M564.304 363.7C564.304 364.639 563.543 365.4 562.604 365.4 561.665 365.4 560.904 364.639 560.904 363.7 560.904 362.761 561.665 362 562.604 362 563.543 362 564.304 362.761 564.304 363.7Z" fill="#000000" fill-rule="nonzero" fill-opacity="1"/><path d="M563.8 368.9C563.8 369.839 564.561 370.6 565.5 370.6 566.439 370.6 567.2 369.839 567.2 368.9 567.2 367.961 566.439 367.2 565.5 367.2 564.561 367.2 563.8 367.961 563.8 368.9Z" fill="#000000" fill-rule="nonzero" fill-opacity="1"/><path d="M559.2 369.4C560.139 369.4 560.9 368.639 560.9 367.7 560.9 366.761 560.139 366 559.2 366 558.261 366 557.5 366.761 557.5 367.7 557.5 368.639 558.261 369.4 559.2 369.4Z" fill="#000000" fill-rule="nonzero" fill-opacity="1"/><path d="M558 374C558 375.27 559.03 376.3 560.3 376.3 561.57 376.3 562.6 375.27 562.6 374 562.6 372.73 561.57 371.7 560.3 371.7 559.03 371.7 558 372.73 558 374Z" fill="#000000" fill-rule="nonzero" fill-opacity="1"/></g></g></g></g></g></svg>