<svg width="96" height="98" xmlns="http://www.w3.org/2000/svg" xmlns:xlink="http://www.w3.org/1999/xlink" xml:space="preserve" overflow="hidden"><g transform="translate(-544 -242)"><g><g><g><g><path d="M629.5 318.6 617 306.1C615.3 304.4 613 303.8 610.8 304.2L606.4 299.8C610.3 294.8 612.6 288.4 612.6 281.6 612.6 265.1 599.1 251.6 582.6 251.6 566.1 251.6 552.6 265.1 552.6 281.6 552.6 298.1 566.1 311.6 582.6 311.6 589.4 311.6 595.7 309.3 600.8 305.4L605.2 309.8C604.8 312 605.4 314.3 607.1 316L619.6 328.5C621 329.9 622.8 330.6 624.6 330.6 626.4 330.6 628.2 329.9 629.6 328.5 632.2 325.7 632.2 321.3 629.5 318.6ZM582.5 305.5C569.3 305.5 558.5 294.7 558.5 281.5 558.5 268.3 569.3 257.5 582.5 257.5 595.7 257.5 606.5 268.3 606.5 281.5 606.5 294.7 595.7 305.5 582.5 305.5Z" fill="#000000" fill-rule="nonzero" fill-opacity="1"/></g></g></g></g></g></svg>